<svg xmlns="http://www.w3.org/2000/svg" width="1024" height="1024" viewBox="0 0 1024 1024" version="1.1"><path d="M 159.500 329.623 C 128.835 334.311, 106.025 343.013, 84.277 358.322 C 73.293 366.054, 55.352 383.904, 47.633 394.781 C 26.348 424.776, 15.288 466.099, 18.936 501.996 C 22.835 540.348, 37.269 571.796, 63.221 598.477 L 73.943 609.500 76.355 607 C 78.649 604.623, 128.841 549.275, 167.500 506.492 C 177.400 495.536, 197.205 473.731, 211.512 458.036 C 225.819 442.341, 248.875 417.029, 262.749 401.788 L 287.974 374.075 280.737 367.952 C 259.698 350.151, 234.720 337.815, 207.770 331.916 C 200.935 330.420, 193.771 329.792, 180.500 329.525 C 170.600 329.327, 161.150 329.371, 159.500 329.623 M 133.497 361.303 C 130.848 363.952, 130.054 365.717, 129.493 370.207 C 128.800 375.760, 128.755 375.822, 124.147 377.567 C 110.265 382.824, 100 395.335, 100 406.997 C 100 417.431, 106.495 427.470, 116.376 432.308 C 119.445 433.811, 128.378 436.880, 136.228 439.130 C 152.678 443.844, 154.810 444.797, 158.381 449.041 C 165.980 458.072, 156.088 470, 141 470 C 138.653 470, 134.966 469.471, 132.807 468.824 C 128.475 467.526, 121.217 461.642, 119.124 457.731 C 116.128 452.133, 109.285 451.515, 104.400 456.400 C 98.850 461.950, 100.183 468.930, 108.361 477.143 C 112.435 481.234, 122.869 486.998, 126.205 486.999 C 127.401 487, 128.089 488.119, 128.510 490.750 C 129.642 497.814, 131.706 500.982, 136.578 503.138 C 140.336 504.800, 141.676 504.960, 144.271 504.055 C 149.414 502.263, 151.885 499.175, 153.174 492.934 C 154.289 487.536, 154.570 487.146, 158.100 486.088 C 162.368 484.810, 170.538 478.940, 174.231 474.500 C 183.889 462.889, 183.983 448.028, 174.472 436.406 C 169.984 430.922, 160.314 426.031, 145.103 421.550 C 126.054 415.940, 122 413.339, 122 406.727 C 122 399.106, 130.659 394.313, 142.697 395.269 C 147.514 395.652, 150.592 396.693, 156.517 399.945 C 162.476 403.215, 164.773 403.989, 167.043 403.491 C 171.195 402.579, 175 397.672, 175 393.230 C 175 388.105, 166.546 379.905, 158.719 377.438 L 153.219 375.704 152.785 369.703 C 152.408 364.489, 151.933 363.329, 149.160 360.851 C 146.634 358.595, 145.012 358, 141.384 358 C 137.530 358, 136.274 358.526, 133.497 361.303 M 279 412.685 C 267.175 425.696, 249.175 445.383, 239 456.433 C 228.825 467.482, 210.825 487.300, 199 500.471 C 187.175 513.642, 167.375 535.661, 155 549.400 C 142.625 563.140, 123.186 584.727, 111.803 597.372 C 100.419 610.016, 91.329 620.724, 91.602 621.166 C 92.616 622.806, 106.282 630.347, 115.244 634.213 C 125.715 638.729, 142.435 643.310, 154.920 645.084 C 166.569 646.738, 194.729 645.697, 206.500 643.176 C 270.929 629.375, 321.218 578.076, 332.643 514.500 C 335.131 500.654, 335.085 471.305, 332.555 458 C 330.079 444.982, 324.899 429.445, 319.052 417.500 C 314.184 407.555, 302.551 388.987, 301.205 389.014 C 300.817 389.022, 290.825 399.674, 279 412.685 M 287.265 405.250 C 280.061 413.087, 273.232 420.578, 272.090 421.895 C 267.911 426.715, 243.301 453.711, 236.441 461 C 226.551 471.509, 203.833 496.615, 174.005 530 C 151.788 554.866, 139.506 568.472, 100.365 611.578 L 92.122 620.656 98.311 624.230 C 114.099 633.349, 124.667 637.474, 142.540 641.498 C 183.365 650.687, 231.208 640.991, 265.304 616.619 C 298.961 592.560, 322.138 558.179, 330.043 520.584 C 337.541 484.926, 332.984 447.854, 317.250 416.500 C 312.435 406.904, 302.374 391, 301.118 391 C 300.703 391, 294.469 397.413, 287.265 405.250 M 295.563 487.250 C 293.187 489.587, 283.697 499.600, 274.475 509.500 C 265.253 519.400, 256.449 528.816, 254.910 530.424 L 252.113 533.349 243.806 525.303 C 239.238 520.877, 234.461 516.719, 233.191 516.062 C 227.693 513.216, 220 518.869, 220 525.756 C 220 529.049, 221.194 530.561, 233.856 543.313 C 247.378 556.930, 247.830 557.277, 252.616 557.737 L 257.519 558.208 281.075 532.854 C 315.349 495.963, 314 497.593, 314 493.072 C 314 487.392, 309.657 483, 304.041 483 C 300.494 483, 299.249 483.624, 295.563 487.250 M 299.940 484.974 C 298.560 485.781, 263.105 523.083, 255.351 531.886 L 252.369 535.271 243.137 526.136 C 234.632 517.719, 233.594 517, 229.953 517 C 223.429 517, 219.375 523.033, 222.044 528.769 C 222.742 530.271, 229.256 537.237, 236.518 544.250 C 248.210 555.540, 250.109 556.996, 253.111 556.968 C 254.975 556.951, 257.204 556.388, 258.064 555.718 C 258.924 555.048, 271.636 541.497, 286.314 525.604 C 310.429 499.492, 313 496.378, 313 493.277 C 313 486.835, 305.216 481.886, 299.940 484.974 M 220.385 559.443 C 219.251 560.237, 212.111 567.679, 204.517 575.982 L 190.709 591.077 181.983 582.539 C 174.286 575.006, 172.832 574, 169.645 574 C 164.257 574, 159.955 578.224, 159.284 584.170 L 158.765 588.774 170.843 601.581 C 183.332 614.823, 185.896 616.904, 189.800 616.965 C 194.098 617.031, 197.548 614.191, 211.032 599.489 C 235.237 573.097, 235.004 573.397, 234.967 568.682 C 234.902 560.603, 226.410 555.223, 220.385 559.443 M 221.414 560.147 C 220.266 560.704, 212.865 568.320, 204.967 577.071 L 190.607 592.983 181.438 583.991 C 171.246 573.996, 169.234 573.249, 164.111 577.560 C 160.155 580.889, 159.097 585.972, 161.573 589.754 C 164.464 594.171, 183.238 613.067, 186.323 614.665 C 191.843 617.523, 193.822 616.103, 212.798 595.671 C 222.591 585.127, 231.368 575.387, 232.302 574.027 C 235.599 569.227, 234.123 563.149, 229.020 560.510 C 225.686 558.786, 224.351 558.723, 221.414 560.147" stroke="none" fill="#cdedd4" fill-rule="evenodd"/><path d="M 153 311.090 C 125.783 314.590, 97.530 325.134, 75.458 340.029 C 42.253 362.435, 16.386 397.908, 5.667 435.738 C 0.272 454.778, -0.169 459.282, 0.250 491.056 C 0.618 519.059, 0.768 521.002, 3.305 530.757 C 15.023 575.815, 39.104 610.272, 77 636.208 C 107.085 656.798, 137.651 666.026, 175.628 665.982 C 210.275 665.942, 239.686 658.112, 266.572 641.772 C 315.428 612.079, 348.232 561.414, 353.990 506.755 C 356.151 486.243, 354.553 461.332, 349.835 442 C 347.183 431.134, 339.223 410.726, 333.751 400.760 C 320.221 376.124, 297.220 352.106, 271.879 336.152 C 257.741 327.251, 235.980 318.216, 219.720 314.494 C 201.450 310.313, 171.087 308.763, 153 311.090 M 159.500 329.623 C 128.835 334.311, 106.025 343.013, 84.277 358.322 C 73.293 366.054, 55.352 383.904, 47.633 394.781 C 26.348 424.776, 15.288 466.099, 18.936 501.996 C 22.835 540.348, 37.269 571.796, 63.221 598.477 L 73.943 609.500 76.355 607 C 78.649 604.623, 128.841 549.275, 167.500 506.492 C 177.400 495.536, 197.205 473.731, 211.512 458.036 C 225.819 442.341, 248.875 417.029, 262.749 401.788 L 287.974 374.075 280.737 367.952 C 259.698 350.151, 234.720 337.815, 207.770 331.916 C 200.935 330.420, 193.771 329.792, 180.500 329.525 C 170.600 329.327, 161.150 329.371, 159.500 329.623 M 133.497 361.303 C 130.848 363.952, 130.054 365.717, 129.493 370.207 C 128.800 375.760, 128.755 375.822, 124.147 377.567 C 110.265 382.824, 100 395.335, 100 406.997 C 100 417.431, 106.495 427.470, 116.376 432.308 C 119.445 433.811, 128.378 436.880, 136.228 439.130 C 152.678 443.844, 154.810 444.797, 158.381 449.041 C 165.980 458.072, 156.088 470, 141 470 C 138.653 470, 134.966 469.471, 132.807 468.824 C 128.475 467.526, 121.217 461.642, 119.124 457.731 C 116.128 452.133, 109.285 451.515, 104.400 456.400 C 98.850 461.950, 100.183 468.930, 108.361 477.143 C 112.435 481.234, 122.869 486.998, 126.205 486.999 C 127.401 487, 128.089 488.119, 128.510 490.750 C 129.642 497.814, 131.706 500.982, 136.578 503.138 C 140.336 504.800, 141.676 504.960, 144.271 504.055 C 149.414 502.263, 151.885 499.175, 153.174 492.934 C 154.289 487.536, 154.570 487.146, 158.100 486.088 C 162.368 484.810, 170.538 478.940, 174.231 474.500 C 183.889 462.889, 183.983 448.028, 174.472 436.406 C 169.984 430.922, 160.314 426.031, 145.103 421.550 C 126.054 415.940, 122 413.339, 122 406.727 C 122 399.106, 130.659 394.313, 142.697 395.269 C 147.514 395.652, 150.592 396.693, 156.517 399.945 C 162.476 403.215, 164.773 403.989, 167.043 403.491 C 171.195 402.579, 175 397.672, 175 393.230 C 175 388.105, 166.546 379.905, 158.719 377.438 L 153.219 375.704 152.785 369.703 C 152.408 364.489, 151.933 363.329, 149.160 360.851 C 146.634 358.595, 145.012 358, 141.384 358 C 137.530 358, 136.274 358.526, 133.497 361.303 M 401 423.500 L 401 477 436 477 L 471 477 471 468 L 471 459 446.500 459 L 422 459 422 446.018 L 422 433.036 446.250 432.768 L 470.500 432.500 470.652 423.250 L 470.804 414 446.402 414 L 422 414 422 401 L 422 388 445.929 388 L 469.858 388 470.179 378.998 L 470.500 369.995 435.750 369.998 L 401 370 401 423.500 M 279 412.685 C 267.175 425.696, 249.175 445.383, 239 456.433 C 228.825 467.482, 210.825 487.300, 199 500.471 C 187.175 513.642, 167.375 535.661, 155 549.400 C 142.625 563.140, 123.186 584.727, 111.803 597.372 C 100.419 610.016, 91.329 620.724, 91.602 621.166 C 92.616 622.806, 106.282 630.347, 115.244 634.213 C 125.715 638.729, 142.435 643.310, 154.920 645.084 C 166.569 646.738, 194.729 645.697, 206.500 643.176 C 270.929 629.375, 321.218 578.076, 332.643 514.500 C 335.131 500.654, 335.085 471.305, 332.555 458 C 330.079 444.982, 324.899 429.445, 319.052 417.500 C 314.184 407.555, 302.551 388.987, 301.205 389.014 C 300.817 389.022, 290.825 399.674, 279 412.685 M 287.265 405.250 C 280.061 413.087, 273.232 420.578, 272.090 421.895 C 267.911 426.715, 243.301 453.711, 236.441 461 C 226.551 471.509, 203.833 496.615, 174.005 530 C 151.788 554.866, 139.506 568.472, 100.365 611.578 L 92.122 620.656 98.311 624.230 C 114.099 633.349, 124.667 637.474, 142.540 641.498 C 183.365 650.687, 231.208 640.991, 265.304 616.619 C 298.961 592.560, 322.138 558.179, 330.043 520.584 C 337.541 484.926, 332.984 447.854, 317.250 416.500 C 312.435 406.904, 302.374 391, 301.118 391 C 300.703 391, 294.469 397.413, 287.265 405.250 M 607 398.935 C 602.745 400.234, 596.592 403.686, 594.595 405.894 C 591.721 409.071, 590.975 408.464, 591.655 403.500 L 592.272 399 582.136 399 L 572 399 572 450.500 L 572 502 582 502 L 592 502 592 485.813 L 592 469.626 594.750 472.199 C 600.384 477.470, 603.694 478.500, 615 478.500 C 624.266 478.500, 626.146 478.192, 631 475.877 C 644.575 469.404, 653 455.091, 653 438.500 C 653 419.871, 642.418 404.171, 626.719 399.509 C 621.396 397.928, 611.264 397.633, 607 398.935 M 689.678 399.442 C 671.605 404.644, 659.525 425.737, 662.893 446.210 C 664.493 455.933, 667.863 462.969, 673.580 468.526 C 681.592 476.312, 689.241 479.158, 702.158 479.158 C 713.343 479.158, 721.444 476.275, 728.577 469.756 C 733.085 465.636, 739 456.997, 739 454.533 C 739 454.240, 737.725 454, 736.167 454 C 734.609 454, 730.827 453.497, 727.764 452.881 L 722.194 451.763 717.847 456.272 C 714.284 459.968, 712.491 460.989, 707.902 461.930 C 699.198 463.716, 691.631 461.412, 686.781 455.500 C 684.571 452.806, 682 447.080, 682 444.851 C 682 444.383, 695.275 444, 711.500 444 L 741 444 741 438.210 C 741 421.426, 732.745 407.435, 719.178 401.224 C 712.340 398.093, 697.481 397.196, 689.678 399.442 M 781.500 400.294 C 778.750 401.612, 775.038 403.924, 773.250 405.434 L 770 408.178 770 403.589 L 770 399 760.500 399 L 751 399 751 438 L 751 477 760.421 477 L 769.841 477 770.173 453.250 C 770.484 430.957, 770.640 429.244, 772.729 425.334 C 775.887 419.423, 780.171 416.688, 787.051 416.190 C 794.190 415.674, 799.111 417.834, 802.234 422.856 C 804.406 426.349, 804.513 427.544, 804.826 451.750 L 805.152 477 815.147 477 L 825.143 477 824.793 449.750 C 824.468 424.462, 824.285 422.104, 822.242 417 C 817.271 404.579, 808.991 398.887, 795 398.272 C 787.623 397.948, 785.839 398.215, 781.500 400.294 M 856.173 399.484 C 850.282 401.323, 844.723 405.349, 841.342 410.228 C 839.013 413.589, 838.472 415.526, 838.224 421.397 C 837.972 427.349, 838.299 429.148, 840.240 432.500 C 843.751 438.564, 851.102 442.439, 865.229 445.675 C 879.953 449.048, 883.245 450.827, 882.812 455.174 C 882.316 460.149, 878.261 462.500, 870.177 462.500 C 862.177 462.500, 857.602 460.248, 854.858 454.959 L 853.021 451.419 844.011 452.923 C 835.676 454.314, 835 454.601, 835 456.753 C 835 460.026, 838.335 466.181, 842.205 470.051 C 851.775 479.621, 872.105 482.312, 886.864 475.963 C 902.813 469.102, 907.770 449.659, 896.339 438.804 C 892.419 435.081, 886.293 432.634, 874.119 429.930 C 868.410 428.662, 862.335 426.682, 860.619 425.530 C 854.336 421.311, 856.921 415.214, 865.397 414.259 C 874.637 413.217, 881.088 416.570, 882.536 423.165 C 883.139 425.908, 883.489 426.136, 886.350 425.645 C 888.082 425.349, 892.127 424.800, 895.338 424.427 L 901.175 423.748 900.506 420.179 C 898.633 410.194, 891.559 402.432, 881.655 399.490 C 875.500 397.662, 862.021 397.659, 856.173 399.484 M 939.286 399.388 C 920.155 405.654, 909.319 424.120, 912.043 445.816 C 913.830 460.048, 923.150 472.194, 935.959 476.985 C 948.281 481.593, 964.502 479.489, 974.749 471.953 C 978.817 468.962, 987 457.989, 987 455.526 C 987 454.766, 984.953 454.045, 981.750 453.678 C 978.862 453.347, 974.925 452.797, 973 452.455 C 969.852 451.895, 969.317 452.144, 967.686 454.929 C 962.932 463.043, 947.572 465.103, 938.737 458.812 C 935.857 456.762, 932.772 451.531, 931.623 446.750 L 930.962 444 959.981 444 L 989 444 989.082 441.750 C 989.835 421.050, 982.670 407.616, 967.225 400.772 C 961.195 398.099, 945.581 397.326, 939.286 399.388 M 480 399.784 C 480 400.216, 482.163 403.703, 484.807 407.534 C 495.103 422.455, 506 438.812, 506 439.346 C 506 439.655, 500.150 447.981, 493 457.849 C 485.850 467.717, 480 476.063, 480 476.395 C 480 476.728, 485.512 476.994, 492.250 476.988 L 504.500 476.975 512.700 464.457 L 520.900 451.940 524.595 457.720 C 526.628 460.899, 530.291 466.538, 532.736 470.250 L 537.181 477 549.709 477 L 562.237 477 559.771 473.750 C 551.239 462.506, 534.882 437.749, 535.288 436.692 C 535.555 435.997, 541.224 427.603, 547.887 418.039 C 554.549 408.475, 560 400.265, 560 399.793 C 560 399.322, 554.713 399.063, 548.251 399.218 L 536.503 399.500 528.501 412.220 C 524.101 419.217, 520.275 424.950, 520 424.962 C 519.725 424.974, 518.555 423.300, 517.400 421.242 C 516.245 419.184, 512.672 413.337, 509.460 408.250 L 503.621 399 491.810 399 C 485.315 399, 480 399.353, 480 399.784 M 695.500 415.207 C 689.290 417.377, 683 424.269, 683 428.901 C 683 429.661, 688.890 430, 702.108 430 L 721.217 430 720.548 427.250 C 718.256 417.829, 705.519 411.705, 695.500 415.207 M 944.500 415.326 C 937.861 417.924, 934.448 421.471, 932.547 427.750 L 931.865 430 951 430 L 970.135 430 969.441 427.750 C 967.386 421.090, 964.174 417.538, 958.316 415.449 C 953.683 413.796, 948.526 413.751, 944.500 415.326 M 604.655 416.402 C 599.834 418.192, 596.399 421.363, 593.717 426.500 C 590.921 431.853, 590.788 445.643, 593.476 451.309 C 598.455 461.802, 613.921 465.186, 623.890 457.965 C 629.714 453.746, 632.297 448.120, 632.382 439.470 C 632.469 430.586, 628.783 422.206, 623.152 418.485 C 618.471 415.392, 609.959 414.433, 604.655 416.402 M 295.563 487.250 C 293.187 489.587, 283.697 499.600, 274.475 509.500 C 265.253 519.400, 256.449 528.816, 254.910 530.424 L 252.113 533.349 243.806 525.303 C 239.238 520.877, 234.461 516.719, 233.191 516.062 C 227.693 513.216, 220 518.869, 220 525.756 C 220 529.049, 221.194 530.561, 233.856 543.313 C 247.378 556.930, 247.830 557.277, 252.616 557.737 L 257.519 558.208 281.075 532.854 C 315.349 495.963, 314 497.593, 314 493.072 C 314 487.392, 309.657 483, 304.041 483 C 300.494 483, 299.249 483.624, 295.563 487.250 M 299.940 484.974 C 298.560 485.781, 263.105 523.083, 255.351 531.886 L 252.369 535.271 243.137 526.136 C 234.632 517.719, 233.594 517, 229.953 517 C 223.429 517, 219.375 523.033, 222.044 528.769 C 222.742 530.271, 229.256 537.237, 236.518 544.250 C 248.210 555.540, 250.109 556.996, 253.111 556.968 C 254.975 556.951, 257.204 556.388, 258.064 555.718 C 258.924 555.048, 271.636 541.497, 286.314 525.604 C 310.429 499.492, 313 496.378, 313 493.277 C 313 486.835, 305.216 481.886, 299.940 484.974 M 424.383 511.892 C 418.410 513.427, 411.469 517.445, 406.893 522.016 C 395.253 533.645, 394.993 553.763, 406.355 563.739 C 412.665 569.278, 417.344 571.214, 437.426 576.593 C 451.643 580.400, 456.281 582.710, 458.558 587.113 C 460.716 591.285, 458.989 597.144, 454.620 600.476 C 449.954 604.035, 441.726 605.535, 434.883 604.073 C 427.214 602.434, 422.572 599.031, 419.818 593.027 C 418.525 590.209, 416.850 588.008, 416.006 588.017 C 413.249 588.049, 396.726 590.941, 396.180 591.487 C 395.884 591.782, 396.420 594.493, 397.371 597.509 C 399.615 604.628, 408.172 614.054, 415.927 617.950 C 434.260 627.160, 459.758 623.704, 471.957 610.356 C 478.376 603.333, 480.392 597.328, 479.794 587.010 C 478.900 571.561, 470.829 564.012, 449.236 558.427 C 426.575 552.566, 420.982 549.761, 419.401 543.462 C 418.463 539.726, 421.428 534.210, 425.709 531.726 C 429.922 529.281, 438.374 528.478, 444 529.988 C 449.353 531.424, 456.453 538.233, 457.481 542.915 C 458.257 546.446, 458.530 546.483, 470 544.647 C 477.056 543.517, 477.519 543.286, 477.815 540.742 C 478.304 536.539, 473.371 526.788, 468.176 521.689 C 465.604 519.165, 460.800 515.861, 457.500 514.348 C 452.168 511.903, 450.164 511.569, 439.500 511.344 C 432.900 511.204, 426.097 511.451, 424.383 511.892 M 631.217 512.561 C 623.362 518.062, 624.784 529.225, 633.777 532.659 C 637.900 534.234, 638.360 534.221, 642.716 532.409 C 655.578 527.062, 652.022 511.015, 637.973 511.004 C 635.482 511.002, 632.442 511.702, 631.217 512.561 M 596.250 512.715 L 591 513.105 591 566.552 L 591 620 600.509 620 L 610.017 620 609.759 566.250 L 609.500 512.500 605.500 512.413 C 603.300 512.364, 599.138 512.501, 596.250 512.715 M 672.250 521.706 C 670.098 522.120, 670 522.568, 670 532.024 L 670 541.909 663.250 542.204 L 656.500 542.500 656.208 550.250 L 655.916 558 662.890 558 L 669.865 558 670.182 580.825 L 670.500 603.651 673.515 609.542 C 677.680 617.679, 683.251 621.124, 693.288 621.768 C 700.317 622.219, 710.003 620.882, 712.921 619.059 C 714.140 618.297, 714.097 617.263, 712.623 611.815 C 710.157 602.707, 710.179 602.727, 704.533 603.993 C 697.467 605.576, 693.335 603.951, 690.924 598.640 C 689.307 595.079, 689.041 591.946, 689.022 576.250 L 689 558 700 558 L 711 558 711 550 L 711 542 700 542 L 689 542 689 531.500 L 689 521 681.750 521.136 C 677.763 521.211, 673.487 521.467, 672.250 521.706 M 735.250 521.723 L 732 522.127 732 532.063 L 732 542 724.960 542 L 717.919 542 718.210 550.250 L 718.500 558.500 724.655 558.163 C 729.934 557.875, 730.887 558.088, 731.351 559.663 C 731.648 560.674, 731.899 570.275, 731.910 581 C 731.930 602.329, 732.802 607.429, 737.474 613.554 C 741.498 618.830, 747.142 621.271, 756.500 621.782 C 764.570 622.222, 771.139 621.108, 774.255 618.770 C 775.838 617.583, 775.808 617.021, 773.794 610.168 C 771.737 603.173, 771.520 602.864, 769.069 603.438 C 759.299 605.727, 755.631 604.726, 752.752 598.986 C 750.255 594.008, 750.110 559.556, 752.582 558.607 C 753.452 558.273, 758.852 558, 764.582 558 L 775 558 775 550 L 775 542 763 542 L 751 542 751 531.500 L 751 521 744.750 521.160 C 741.313 521.248, 737.038 521.502, 735.250 521.723 M 525.500 543.355 C 522.750 544.639, 519.038 546.924, 517.250 548.434 L 514 551.178 514 546.553 L 514 541.928 504.250 542.214 L 494.500 542.500 494.240 596 C 494.097 625.425, 494.151 649.950, 494.360 650.500 C 494.589 651.102, 498.569 651.373, 504.370 651.181 L 514 650.863 514 631.530 L 514 612.198 517.048 615.045 C 525.149 622.612, 541.730 624.197, 553.266 618.505 C 560.444 614.963, 568.277 606.820, 571.702 599.340 C 575.195 591.710, 576.051 577.763, 573.582 568.712 C 571.525 561.175, 565.979 552.690, 560.282 548.368 C 550.384 540.857, 535.455 538.706, 525.500 543.355 M 806.892 543.354 C 799.736 546.298, 795.904 549.049, 791.647 554.299 C 784.283 563.382, 781.456 572.800, 782.254 585.596 C 783.628 607.621, 799.307 622, 821.949 622 C 834.768 622, 845.350 617.165, 852.618 607.989 C 855.881 603.869, 858.616 598.283, 857.780 597.447 C 857.257 596.924, 840.706 593.870, 840.535 594.265 C 838.745 598.407, 836.827 600.405, 832.639 602.493 C 821.435 608.076, 808.792 604.121, 803.890 593.500 C 800.200 585.506, 798.418 586, 830.933 586 C 863.989 586, 861.768 586.699, 860.529 576.692 C 858.371 559.266, 848.859 546.708, 834.614 542.478 C 826.803 540.158, 813.651 540.574, 806.892 543.354 M 899.485 543.064 C 897.293 544.199, 894.263 546.456, 892.750 548.080 L 890 551.032 890 546.516 L 890 542 880.500 542 L 871 542 871 581 L 871 620 880.408 620 L 889.816 620 890.158 596.250 C 890.492 573.079, 890.561 572.392, 893 568.051 C 896.307 562.167, 900.521 559.839, 908.960 559.235 L 915.758 558.749 916.251 550.624 C 916.523 546.156, 916.551 542.163, 916.313 541.750 C 915.348 540.071, 903.474 540.998, 899.485 543.064 M 627.950 542.382 C 627.703 542.629, 627.623 560.195, 627.773 581.416 L 628.046 620 637.990 620 L 647.933 620 647.717 581.250 L 647.500 542.500 637.950 542.216 C 632.698 542.060, 628.198 542.135, 627.950 542.382 M 812.106 559.198 C 808.975 560.873, 806.862 563.053, 804.759 566.775 L 801.807 572 821.471 572 L 841.135 572 840.463 569.750 C 839.374 566.099, 837.276 563.312, 833.381 560.341 C 828.146 556.348, 818.408 555.825, 812.106 559.198 M 220.385 559.443 C 219.251 560.237, 212.111 567.679, 204.517 575.982 L 190.709 591.077 181.983 582.539 C 174.286 575.006, 172.832 574, 169.645 574 C 164.257 574, 159.955 578.224, 159.284 584.170 L 158.765 588.774 170.843 601.581 C 183.332 614.823, 185.896 616.904, 189.800 616.965 C 194.098 617.031, 197.548 614.191, 211.032 599.489 C 235.237 573.097, 235.004 573.397, 234.967 568.682 C 234.902 560.603, 226.410 555.223, 220.385 559.443 M 527.500 559.222 C 518.815 562.301, 513.824 570.527, 513.824 581.761 C 513.824 594.969, 519.476 602.597, 530.637 604.451 C 543.647 606.611, 555.013 595.932, 554.990 581.571 C 554.964 565.259, 541.453 554.275, 527.500 559.222 M 221.414 560.147 C 220.266 560.704, 212.865 568.320, 204.967 577.071 L 190.607 592.983 181.438 583.991 C 171.246 573.996, 169.234 573.249, 164.111 577.560 C 160.155 580.889, 159.097 585.972, 161.573 589.754 C 164.464 594.171, 183.238 613.067, 186.323 614.665 C 191.843 617.523, 193.822 616.103, 212.798 595.671 C 222.591 585.127, 231.368 575.387, 232.302 574.027 C 235.599 569.227, 234.123 563.149, 229.020 560.510 C 225.686 558.786, 224.351 558.723, 221.414 560.147" stroke="none" fill="#49ac87" fill-rule="evenodd"/></svg>