<svg xmlns="http://www.w3.org/2000/svg" width="992" height="366" viewBox="0 0 992 366" version="1.1"><path d="M 159.500 25.691 C 131.561 29.331, 105.909 39.095, 84.277 54.322 C 73.293 62.054, 55.352 79.904, 47.633 90.781 C 26.348 120.776, 15.288 162.099, 18.936 197.996 C 22.835 236.348, 37.269 267.796, 63.221 294.477 L 73.943 305.500 76.355 303 C 78.640 300.632, 128.371 245.792, 167.500 202.494 C 177.400 191.539, 194.739 172.433, 206.032 160.038 C 217.325 147.642, 240.382 122.330, 257.270 103.789 L 287.977 70.077 280.738 63.958 C 256.252 43.257, 226.197 29.809, 196.026 26.054 C 188.020 25.058, 166.034 24.839, 159.500 25.691 M 133.497 57.303 C 130.848 59.952, 130.054 61.717, 129.493 66.207 C 128.800 71.760, 128.755 71.822, 124.147 73.567 C 110.265 78.824, 100 91.335, 100 102.997 C 100 113.431, 106.495 123.470, 116.376 128.308 C 119.445 129.811, 128.378 132.880, 136.228 135.130 C 152.678 139.844, 154.810 140.797, 158.381 145.041 C 165.980 154.072, 156.088 166, 141 166 C 138.653 166, 134.966 165.471, 132.807 164.824 C 128.475 163.526, 121.217 157.642, 119.124 153.731 C 116.128 148.133, 109.285 147.515, 104.400 152.400 C 98.850 157.950, 100.183 164.930, 108.361 173.143 C 112.435 177.234, 122.869 182.998, 126.205 182.999 C 127.401 183, 128.089 184.119, 128.510 186.750 C 129.642 193.814, 131.706 196.982, 136.578 199.138 C 140.336 200.800, 141.676 200.960, 144.271 200.055 C 149.414 198.263, 151.885 195.175, 153.174 188.934 C 154.289 183.536, 154.570 183.146, 158.100 182.088 C 162.368 180.810, 170.538 174.940, 174.231 170.500 C 183.889 158.889, 183.983 144.028, 174.472 132.406 C 169.958 126.891, 160.222 121.959, 145.090 117.523 C 126.056 111.944, 122 109.345, 122 102.727 C 122 95.106, 130.659 90.313, 142.697 91.269 C 147.514 91.652, 150.592 92.693, 156.517 95.945 C 162.476 99.215, 164.773 99.989, 167.043 99.491 C 171.195 98.579, 175 93.672, 175 89.230 C 175 84.105, 166.546 75.905, 158.719 73.438 L 153.219 71.704 152.785 65.703 C 152.408 60.489, 151.933 59.329, 149.160 56.851 C 146.634 54.595, 145.012 54, 141.384 54 C 137.530 54, 136.274 54.526, 133.497 57.303 M 401.407 85 C 401.407 94.075, 401.559 97.787, 401.744 93.250 C 401.929 88.713, 401.929 81.287, 401.744 76.750 C 401.559 72.213, 401.407 75.925, 401.407 85 M 279 108.685 C 267.175 121.696, 249.175 141.383, 239 152.433 C 228.825 163.482, 210.825 183.300, 199 196.471 C 187.175 209.642, 167.375 231.661, 155 245.400 C 142.625 259.140, 123.186 280.727, 111.803 293.372 C 100.419 306.016, 91.329 316.724, 91.602 317.166 C 92.616 318.806, 106.282 326.347, 115.244 330.213 C 125.715 334.729, 142.435 339.310, 154.920 341.084 C 166.569 342.738, 194.729 341.697, 206.500 339.176 C 270.907 325.380, 321.221 274.055, 332.643 210.500 C 335.131 196.654, 335.085 167.305, 332.555 154 C 330.079 140.982, 324.899 125.445, 319.052 113.500 C 314.184 103.555, 302.551 84.987, 301.205 85.014 C 300.817 85.022, 290.825 95.674, 279 108.685 M 286.931 101.664 C 279.544 109.729, 271.250 118.831, 268.500 121.892 C 265.750 124.952, 260.575 130.637, 257 134.525 C 222.079 172.505, 204.803 191.548, 174.013 226 C 151.791 250.865, 139.453 264.531, 100.365 307.578 L 92.122 316.656 98.311 320.230 C 114.099 329.349, 124.667 333.474, 142.540 337.498 C 183.365 346.687, 231.208 336.991, 265.304 312.619 C 288.002 296.394, 305.738 275.858, 317.521 252.159 C 332.865 221.298, 337.457 184.863, 330.396 150.006 C 328.227 139.295, 322.505 122.972, 317.250 112.500 C 312.435 102.904, 302.374 87, 301.118 87 C 300.703 87, 294.319 93.599, 286.931 101.664 M 572.464 145.500 C 572.464 173.550, 572.592 185.169, 572.749 171.320 C 572.906 157.471, 572.906 134.521, 572.749 120.320 C 572.593 106.119, 572.465 117.450, 572.464 145.500 M 401.425 125 C 401.425 136.825, 401.569 141.662, 401.746 135.750 C 401.923 129.838, 401.923 120.163, 401.746 114.250 C 401.569 108.338, 401.425 113.175, 401.425 125 M 470.349 120 C 470.349 124.675, 470.522 126.587, 470.732 124.250 C 470.943 121.912, 470.943 118.087, 470.732 115.750 C 470.522 113.412, 470.349 115.325, 470.349 120 M 662.300 135 C 662.300 138.025, 662.487 139.262, 662.716 137.750 C 662.945 136.238, 662.945 133.762, 662.716 132.250 C 662.487 130.738, 662.300 131.975, 662.300 135 M 470.360 164 C 470.360 169.225, 470.529 171.363, 470.735 168.750 C 470.941 166.137, 470.941 161.863, 470.735 159.250 C 470.529 156.637, 470.360 158.775, 470.360 164 M 591.409 181.500 C 591.408 190.850, 591.558 194.810, 591.743 190.299 C 591.928 185.789, 591.929 178.139, 591.745 173.299 C 591.562 168.460, 591.410 172.150, 591.409 181.500 M 295.563 183.250 C 293.187 185.588, 283.697 195.600, 274.475 205.500 C 265.253 215.400, 256.424 224.841, 254.855 226.479 L 252.003 229.459 243.751 221.340 C 239.213 216.875, 234.461 212.692, 233.191 212.044 C 227.681 209.234, 220 214.880, 220 221.741 C 220 224.994, 221.187 226.531, 232.750 238.247 C 246.429 252.107, 249.019 254, 254.307 254 C 257.472 254, 259.370 252.217, 281.172 228.750 C 315.337 191.976, 314 193.592, 314 189.072 C 314 183.392, 309.657 179, 304.041 179 C 300.494 179, 299.249 179.624, 295.563 183.250 M 299.940 180.974 C 298.560 181.781, 263.105 219.083, 255.351 227.886 L 252.369 231.271 243.137 222.136 C 234.632 213.719, 233.594 213, 229.953 213 C 223.429 213, 219.375 219.033, 222.044 224.769 C 222.742 226.271, 229.256 233.238, 236.518 240.250 C 248.210 251.540, 250.109 252.996, 253.111 252.968 C 254.975 252.951, 257.204 252.388, 258.064 251.718 C 258.924 251.048, 271.636 237.497, 286.314 221.604 C 310.429 195.492, 313 192.378, 313 189.277 C 313 182.835, 305.216 177.886, 299.940 180.974 M 676.750 217.723 C 678.538 217.945, 681.462 217.945, 683.250 217.723 C 685.038 217.502, 683.575 217.320, 680 217.320 C 676.425 217.320, 674.962 217.502, 676.750 217.723 M 740.728 217.722 C 742.503 217.943, 745.653 217.946, 747.728 217.730 C 749.802 217.513, 748.350 217.333, 744.500 217.328 C 740.650 217.324, 738.952 217.501, 740.728 217.722 M 494.667 238.667 C 493.741 239.592, 493.824 346.773, 494.750 347.345 C 495.163 347.600, 495.500 323.102, 495.500 292.905 C 495.500 262.707, 495.462 238, 495.417 238 C 495.371 238, 495.033 238.300, 494.667 238.667 M 656.419 239.349 C 656.135 240.091, 656.042 243.804, 656.213 247.599 L 656.524 254.500 657.012 246.248 C 657.499 238.008, 657.396 236.805, 656.419 239.349 M 647.454 276.500 C 647.453 297.400, 647.586 306.092, 647.748 295.816 C 647.911 285.540, 647.911 268.440, 647.749 257.816 C 647.587 247.192, 647.454 255.600, 647.454 276.500 M 220.385 255.443 C 219.251 256.237, 212.111 263.679, 204.517 271.982 L 190.709 287.077 181.983 278.539 C 174.286 271.006, 172.832 270, 169.645 270 C 164.257 270, 159.955 274.224, 159.284 280.170 L 158.765 284.774 170.843 297.581 C 183.332 310.823, 185.896 312.904, 189.800 312.965 C 194.098 313.031, 197.548 310.191, 211.032 295.489 C 235.237 269.097, 235.004 269.397, 234.967 264.682 C 234.902 256.603, 226.410 251.223, 220.385 255.443 M 221.414 256.147 C 220.266 256.704, 212.865 264.320, 204.967 273.071 L 190.607 288.983 181.438 279.991 C 171.246 269.996, 169.234 269.249, 164.111 273.560 C 160.155 276.889, 159.097 281.972, 161.573 285.754 C 164.464 290.171, 183.238 309.067, 186.323 310.665 C 191.843 313.523, 193.822 312.103, 212.798 291.671 C 222.591 281.127, 231.368 271.387, 232.302 270.027 C 235.599 265.227, 234.123 259.149, 229.020 256.510 C 225.686 254.786, 224.351 254.723, 221.414 256.147 M 50 310.500 C 52.987 313.525, 55.657 316, 55.932 316 C 56.207 316, 53.987 313.525, 51 310.500 C 48.013 307.475, 45.343 305, 45.068 305 C 44.793 305, 47.013 307.475, 50 310.500" stroke="none" fill="#cdecd4" fill-rule="evenodd"/><path d="M 152 7.442 C 73.954 18.630, 15.377 74.511, 1.513 151 C 0.066 158.983, -0.132 164.813, 0.270 187.500 C 0.800 217.446, 1.320 221.024, 8.114 241.500 C 17.118 268.638, 29.591 288.678, 50.459 309.533 C 87.550 346.604, 129.939 363.395, 182 361.641 C 228.228 360.083, 265.967 344.221, 298.864 312.523 C 344.803 268.258, 363.561 207.680, 350.893 144.500 C 337.208 76.246, 280.354 21.511, 210 8.858 C 195.181 6.193, 165.728 5.474, 152 7.442 M 159.500 25.691 C 131.561 29.331, 105.909 39.095, 84.277 54.322 C 73.293 62.054, 55.352 79.904, 47.633 90.781 C 26.348 120.776, 15.288 162.099, 18.936 197.996 C 22.835 236.348, 37.269 267.796, 63.221 294.477 L 73.943 305.500 76.355 303 C 78.640 300.632, 128.371 245.792, 167.500 202.494 C 177.400 191.539, 194.739 172.433, 206.032 160.038 C 217.325 147.642, 240.382 122.330, 257.270 103.789 L 287.977 70.077 280.738 63.958 C 256.252 43.257, 226.197 29.809, 196.026 26.054 C 188.020 25.058, 166.034 24.839, 159.500 25.691 M 133.497 57.303 C 130.848 59.952, 130.054 61.717, 129.493 66.207 C 128.800 71.760, 128.755 71.822, 124.147 73.567 C 110.265 78.824, 100 91.335, 100 102.997 C 100 113.431, 106.495 123.470, 116.376 128.308 C 119.445 129.811, 128.378 132.880, 136.228 135.130 C 152.678 139.844, 154.810 140.797, 158.381 145.041 C 165.980 154.072, 156.088 166, 141 166 C 138.653 166, 134.966 165.471, 132.807 164.824 C 128.475 163.526, 121.217 157.642, 119.124 153.731 C 116.128 148.133, 109.285 147.515, 104.400 152.400 C 98.850 157.950, 100.183 164.930, 108.361 173.143 C 112.435 177.234, 122.869 182.998, 126.205 182.999 C 127.401 183, 128.089 184.119, 128.510 186.750 C 129.642 193.814, 131.706 196.982, 136.578 199.138 C 140.336 200.800, 141.676 200.960, 144.271 200.055 C 149.414 198.263, 151.885 195.175, 153.174 188.934 C 154.289 183.536, 154.570 183.146, 158.100 182.088 C 162.368 180.810, 170.538 174.940, 174.231 170.500 C 183.889 158.889, 183.983 144.028, 174.472 132.406 C 169.958 126.891, 160.222 121.959, 145.090 117.523 C 126.056 111.944, 122 109.345, 122 102.727 C 122 95.106, 130.659 90.313, 142.697 91.269 C 147.514 91.652, 150.592 92.693, 156.517 95.945 C 162.476 99.215, 164.773 99.989, 167.043 99.491 C 171.195 98.579, 175 93.672, 175 89.230 C 175 84.105, 166.546 75.905, 158.719 73.438 L 153.219 71.704 152.785 65.703 C 152.408 60.489, 151.933 59.329, 149.160 56.851 C 146.634 54.595, 145.012 54, 141.384 54 C 137.530 54, 136.274 54.526, 133.497 57.303 M 402.015 66.750 C 402.023 67.162, 401.898 91.237, 401.738 120.250 L 401.446 173 435.723 173 L 470 173 470 164 L 470 155 446 155 L 422 155 422 142 L 422 129 446 129 L 470 129 470 119.500 L 470 110 446 110 L 422 110 422 97 L 422 84 446 84 L 470 84 470 75 L 470 66 436 66 C 417.300 66, 402.007 66.338, 402.015 66.750 M 279 108.685 C 267.175 121.696, 249.175 141.383, 239 152.433 C 228.825 163.482, 210.825 183.300, 199 196.471 C 187.175 209.642, 167.375 231.661, 155 245.400 C 142.625 259.140, 123.186 280.727, 111.803 293.372 C 100.419 306.016, 91.329 316.724, 91.602 317.166 C 92.616 318.806, 106.282 326.347, 115.244 330.213 C 125.715 334.729, 142.435 339.310, 154.920 341.084 C 166.569 342.738, 194.729 341.697, 206.500 339.176 C 270.907 325.380, 321.221 274.055, 332.643 210.500 C 335.131 196.654, 335.085 167.305, 332.555 154 C 330.079 140.982, 324.899 125.445, 319.052 113.500 C 314.184 103.555, 302.551 84.987, 301.205 85.014 C 300.817 85.022, 290.825 95.674, 279 108.685 M 286.931 101.664 C 279.544 109.729, 271.250 118.831, 268.500 121.892 C 265.750 124.952, 260.575 130.637, 257 134.525 C 222.079 172.505, 204.803 191.548, 174.013 226 C 151.791 250.865, 139.453 264.531, 100.365 307.578 L 92.122 316.656 98.311 320.230 C 114.099 329.349, 124.667 333.474, 142.540 337.498 C 183.365 346.687, 231.208 336.991, 265.304 312.619 C 288.002 296.394, 305.738 275.858, 317.521 252.159 C 332.865 221.298, 337.457 184.863, 330.396 150.006 C 328.227 139.295, 322.505 122.972, 317.250 112.500 C 312.435 102.904, 302.374 87, 301.118 87 C 300.703 87, 294.319 93.599, 286.931 101.664 M 605.332 95.851 C 600.031 97.683, 593 102.358, 593 104.051 C 593 104.573, 592.550 105, 592 105 C 591.450 105, 591 102.750, 591 100 L 591 95 582 95 L 573 95 573 145.500 C 573 173.275, 572.888 196.338, 572.750 196.750 C 572.612 197.162, 576.663 197.629, 581.750 197.788 L 591 198.075 591 181.449 L 591 164.822 594.134 167.459 C 602.994 174.915, 614.851 176.907, 627.040 172.987 C 657.353 163.240, 662.223 116.722, 634.750 99.346 C 626.599 94.192, 614.347 92.736, 605.332 95.851 M 691.734 95.021 C 678.772 98.305, 668.486 108.641, 664.486 122.400 C 661.915 131.245, 662.726 145.639, 666.222 153.218 C 669.900 161.190, 676.701 168.126, 684.266 171.620 C 690.008 174.273, 691.408 174.498, 702 174.472 C 712.284 174.448, 714.100 174.166, 719.175 171.812 C 722.296 170.364, 726.796 167.377, 729.175 165.173 C 733.389 161.270, 738.938 152.604, 737.892 151.559 C 737.605 151.272, 733.903 150.374, 729.665 149.563 L 721.960 148.089 718.005 152.378 C 708.248 162.964, 690.443 160.629, 683.956 147.914 C 682.880 145.805, 682 143.162, 682 142.040 C 682 140.033, 682.475 140, 711.500 140 C 738.931 140, 740.999 139.877, 740.992 138.250 C 740.957 130.172, 738.781 119.509, 736.072 114.142 C 729.767 101.653, 719.290 95.163, 704.323 94.473 C 699.470 94.250, 693.806 94.496, 691.734 95.021 M 783.365 95.855 C 777.803 97.929, 772.406 101.500, 771.580 103.652 C 770.434 106.637, 769.520 104.711, 769.847 100.001 L 770.193 95 760.597 95 L 751 95 751 134 L 751 173 760.500 173 L 770 173 770.024 151.250 C 770.049 128.417, 770.645 123.306, 773.776 119.077 C 777.475 114.081, 781.777 112, 788.398 112.004 C 796.106 112.008, 800.382 114.423, 803.036 120.271 C 804.758 124.064, 804.958 127.001, 804.978 148.750 L 805 173 814.897 173 L 824.793 173 824.934 151.750 C 825.011 140.063, 824.602 127.125, 824.026 123 C 821.486 104.827, 812.100 95.409, 795.500 94.376 C 790.229 94.048, 787.232 94.413, 783.365 95.855 M 857.500 95.335 C 842.309 100.382, 834.893 112.404, 839.136 125.101 C 841.792 133.046, 849.426 137.755, 865.765 141.527 C 879.092 144.603, 882.767 146.225, 883.559 149.378 C 884.948 154.914, 879.191 159, 870 159 C 861.957 159, 857.779 156.612, 853.500 149.571 C 852.605 148.099, 851.659 148.052, 844.500 149.124 C 840.100 149.783, 836.130 150.643, 835.677 151.034 C 834.048 152.443, 837.178 160.237, 841.065 164.455 C 843.347 166.931, 847.634 169.943, 851.253 171.615 C 857.049 174.292, 858.366 174.499, 869.500 174.485 C 880.570 174.471, 881.940 174.255, 887.182 171.695 C 893.302 168.705, 898.424 163.622, 900.625 158.355 C 902.789 153.175, 902.360 144.194, 899.726 139.543 C 895.697 132.430, 889.892 129.608, 870.990 125.573 C 861.263 123.497, 856.995 120.960, 857.015 117.265 C 857.044 112.125, 860.491 109.858, 868.388 109.787 C 875.470 109.724, 879.703 112.073, 882.045 117.368 L 883.914 121.594 891.880 120.547 C 896.261 119.971, 900.104 119.239, 900.420 118.920 C 900.735 118.601, 900.290 115.971, 899.430 113.075 C 897.424 106.321, 891.594 99.935, 884.727 96.969 C 878.250 94.171, 863.641 93.294, 857.500 95.335 M 939.525 95.597 C 928.703 99.066, 920.423 106.588, 915.234 117.664 C 912.731 123.006, 912.500 124.516, 912.500 135.500 C 912.500 146.363, 912.747 148.021, 915.110 153 C 918.984 161.162, 925.040 167.402, 932.787 171.213 C 939.114 174.326, 940.053 174.500, 950.484 174.500 C 960.465 174.500, 962.075 174.234, 967.617 171.673 C 974.432 168.524, 980.579 162.787, 984.410 156 L 986.950 151.500 978.846 149.867 L 970.741 148.235 966.621 152.513 C 954.990 164.588, 934.999 159.309, 931.541 143.250 L 930.841 140 960.040 140 L 989.239 140 988.822 130.750 C 988.494 123.474, 987.843 120.280, 985.772 115.782 C 982.113 107.833, 975.287 100.851, 967.961 97.563 C 960.215 94.087, 947.072 93.178, 939.525 95.597 M 480 95.553 C 480 95.858, 485.288 103.828, 491.750 113.265 C 498.212 122.703, 504.197 131.545, 505.049 132.915 C 506.566 135.355, 506.339 135.767, 493.996 152.953 C 487.066 162.604, 481.055 171.063, 480.639 171.750 C 480.050 172.723, 482.560 173, 491.956 173 L 504.031 173 512.111 160.750 C 516.555 154.013, 520.486 148.406, 520.846 148.291 C 521.206 148.176, 525.100 153.688, 529.500 160.539 L 537.500 172.995 549.250 172.997 C 555.712 172.999, 561 172.755, 561 172.456 C 561 172.157, 556.357 165.295, 550.683 157.206 C 545.009 149.118, 538.954 140.423, 537.228 137.886 L 534.090 133.271 536.866 129.386 C 545.717 116.994, 560 96.147, 560 95.619 C 560 95.278, 554.859 95, 548.575 95 L 537.150 95 528.886 108 C 524.341 115.150, 520.370 120.995, 520.061 120.988 C 519.752 120.982, 515.900 115.149, 511.500 108.027 L 503.500 95.078 491.750 95.039 C 485.288 95.018, 480 95.249, 480 95.553 M 694.007 111.593 C 689.798 113.419, 686.304 116.550, 684.405 120.200 C 681.356 126.060, 681.169 126, 702.500 126 C 713.225 126, 722 125.757, 722 125.460 C 722 123.976, 717.908 117.233, 715.834 115.298 C 710.382 110.212, 700.902 108.603, 694.007 111.593 M 942.263 111.967 C 938.154 113.832, 932 121.465, 932 124.696 C 932 125.722, 936.045 126, 951 126 C 962.118 126, 970 125.612, 970 125.065 C 970 120.684, 964.441 113.584, 959.282 111.377 C 954.760 109.442, 947.253 109.702, 942.263 111.967 M 603.500 112.388 C 598.567 114.541, 593.421 121.075, 592.003 126.988 C 590.530 133.130, 591.217 143.593, 593.365 147.722 C 596.694 154.121, 603.727 158, 612 158 C 618.298 158, 622.567 156.219, 626.707 151.866 C 637.923 140.072, 632.967 116.138, 618.477 112.115 C 613.231 110.659, 607.210 110.768, 603.500 112.388 M 295.563 183.250 C 293.187 185.588, 283.697 195.600, 274.475 205.500 C 265.253 215.400, 256.424 224.841, 254.855 226.479 L 252.003 229.459 243.751 221.340 C 239.213 216.875, 234.461 212.692, 233.191 212.044 C 227.681 209.234, 220 214.880, 220 221.741 C 220 224.994, 221.187 226.531, 232.750 238.247 C 246.429 252.107, 249.019 254, 254.307 254 C 257.472 254, 259.370 252.217, 281.172 228.750 C 315.337 191.976, 314 193.592, 314 189.072 C 314 183.392, 309.657 179, 304.041 179 C 300.494 179, 299.249 179.624, 295.563 183.250 M 299.940 180.974 C 298.560 181.781, 263.105 219.083, 255.351 227.886 L 252.369 231.271 243.137 222.136 C 234.632 213.719, 233.594 213, 229.953 213 C 223.429 213, 219.375 219.033, 222.044 224.769 C 222.742 226.271, 229.256 233.238, 236.518 240.250 C 248.210 251.540, 250.109 252.996, 253.111 252.968 C 254.975 252.951, 257.204 252.388, 258.064 251.718 C 258.924 251.048, 271.636 237.497, 286.314 221.604 C 310.429 195.492, 313 192.378, 313 189.277 C 313 182.835, 305.216 177.886, 299.940 180.974 M 423.776 208.413 C 413.230 211.463, 405.566 217.758, 401.144 227 C 399.026 231.428, 398.512 233.967, 398.507 240.027 C 398.491 257.726, 408.603 265.578, 441.527 273.430 C 458.131 277.390, 463.954 285.432, 456.802 294.524 C 452.307 300.239, 441.137 302.619, 431.858 299.839 C 426.277 298.167, 420.279 292.663, 418.854 287.905 C 417.512 283.428, 418.528 283.527, 403 286.354 C 396.922 287.461, 396.520 287.699, 396.810 290.019 C 397.869 298.508, 407.563 310.079, 417.377 314.573 C 424.897 318.015, 437.113 319.577, 446.240 318.263 C 461.189 316.111, 470.774 310.284, 476.516 299.855 C 479.161 295.053, 479.467 293.570, 479.483 285.500 C 479.503 274.993, 477.773 270.738, 470.992 264.612 C 465.739 259.866, 460.406 257.571, 446 253.861 C 439.675 252.231, 432.131 249.966, 429.237 248.828 C 419.809 245.119, 416.675 238.498, 421.019 231.469 C 425.717 223.868, 442.377 222.628, 451 229.236 C 454.024 231.553, 457.988 237.821, 457.995 240.295 C 457.999 241.766, 458.588 241.992, 461.250 241.544 C 463.038 241.244, 467.372 240.564, 470.882 240.033 C 474.393 239.503, 477.481 238.852, 477.745 238.588 C 478.009 238.324, 477.686 235.862, 477.028 233.116 C 474.607 223.027, 466.593 214.205, 455.999 209.968 C 449.018 207.176, 431.050 206.309, 423.776 208.413 M 631.353 208.867 C 627.735 211.141, 625.528 216.574, 626.473 220.878 C 627.508 225.591, 631.235 228.272, 637.470 228.789 C 642.674 229.221, 643.137 229.063, 646.478 225.722 C 651.134 221.066, 651.396 215.594, 647.191 210.887 C 643.502 206.759, 636.190 205.826, 631.353 208.867 M 591 262.500 L 591 316 600.500 316 L 610 316 610 262.500 L 610 209 600.500 209 L 591 209 591 262.500 M 678.250 217.755 L 670 218.081 670 228.332 L 670 238.583 663.750 238.542 L 657.500 238.500 657.208 246.250 L 656.916 254 663.389 254 L 669.863 254 670.254 276.250 C 670.501 290.309, 671.107 299.919, 671.899 302.355 C 675.967 314.869, 690.716 320.846, 706.899 316.539 C 709.868 315.749, 712.684 314.716, 713.156 314.244 C 713.634 313.766, 713.047 310.167, 711.831 306.122 C 709.883 299.643, 709.424 298.927, 707.574 299.493 C 701.999 301.199, 696.985 301.220, 694.436 299.550 C 689.745 296.476, 689 292.775, 689 272.532 L 689 254 699.839 254 L 710.679 254 710.426 246.250 L 710.174 238.500 699.618 238.502 L 689.063 238.504 688.781 228.083 C 688.620 222.094, 688.075 217.613, 687.500 217.546 C 686.950 217.481, 682.788 217.575, 678.250 217.755 M 732.486 219.250 C 732.238 219.938, 731.915 224.526, 731.768 229.446 L 731.500 238.392 725.851 238.128 C 722.339 237.964, 719.927 238.309, 719.476 239.039 C 719.077 239.685, 718.626 243.315, 718.473 247.106 L 718.196 254 725.016 254 L 731.836 254 732.190 276.750 C 732.488 295.864, 732.829 300.139, 734.323 303.500 C 736.564 308.540, 741.464 313.683, 746 315.755 C 750.864 317.977, 767.159 317.961, 772.095 315.729 L 775.689 314.103 773.595 306.511 C 771.741 299.791, 771.270 298.990, 769.500 299.534 C 764.984 300.921, 758.192 301.173, 756.061 300.033 C 751.796 297.750, 751 293.508, 751 273.064 L 751 254.063 762.670 253.782 L 774.341 253.500 774.420 246 L 774.500 238.500 762.750 238.510 L 751 238.519 751 228.260 L 751 218 741.969 218 C 735.651 218, 732.802 218.376, 732.486 219.250 M 526.500 239.047 C 523.750 240.115, 519.837 242.572, 517.805 244.506 L 514.110 248.022 513.805 243.261 L 513.500 238.500 504.500 238.500 L 495.500 238.500 495.241 292.750 L 494.983 347 504.491 347 L 514 347 514 327.313 L 514 307.626 516.750 310.203 C 522.516 315.606, 527.747 317.434, 537.500 317.452 C 545.179 317.466, 547.342 317.076, 552.236 314.796 C 562.832 309.859, 571.120 299.313, 573.996 287.110 C 575.532 280.596, 574.829 268.374, 572.552 262 C 565.763 242.991, 544.117 232.202, 526.500 239.047 M 809.748 238.430 C 798.765 241.581, 789.077 250.967, 784.758 262.640 C 783.053 267.248, 782.598 270.637, 782.630 278.500 C 782.684 291.687, 785.002 297.907, 792.853 305.931 C 799.218 312.436, 804.069 315.238, 811.799 316.877 C 826.544 320.002, 840.618 316.267, 849.645 306.833 C 853.303 303.010, 858.686 294.258, 857.820 293.542 C 857.644 293.396, 853.761 292.613, 849.192 291.801 L 840.883 290.325 839.436 293.124 C 837.010 297.816, 830.356 301, 822.978 301 C 811.984 301, 805.411 296.339, 802.428 286.428 L 801.096 282 830.673 282 L 860.251 282 859.765 273.750 C 858.842 258.072, 852.008 247.083, 839.287 240.820 C 833.536 237.989, 831.552 237.547, 823.602 237.323 C 818.129 237.169, 812.605 237.611, 809.748 238.430 M 901.184 238.519 C 896.896 240.381, 892.818 243.601, 891.285 246.334 C 890.211 248.251, 890.067 247.891, 890.035 243.212 L 890 237.925 880.750 238.212 L 871.500 238.500 871.238 277.250 L 870.977 316 880.488 316 L 890 316 890 295.049 C 890 272.729, 890.890 265.681, 894.246 261.415 C 897.292 257.542, 903.537 255.048, 910.250 255.022 L 916 255 916 246 L 916 237 910.250 237.039 C 907.087 237.061, 903.008 237.727, 901.184 238.519 M 628.417 238.917 C 628.188 239.146, 628 256.583, 628 277.667 L 628 316 637.500 316 L 647 316 647 277.233 L 647 238.466 637.917 238.483 C 632.921 238.492, 628.646 238.688, 628.417 238.917 M 817.138 253.176 C 811.681 254.124, 806.580 257.943, 803.991 263.018 C 802.896 265.164, 802 267.163, 802 267.460 C 802 267.757, 810.775 268, 821.500 268 C 836.442 268, 840.996 267.708, 840.984 266.750 C 840.948 264.037, 836.317 257.505, 833.096 255.624 C 828.816 253.124, 822.773 252.198, 817.138 253.176 M 220.385 255.443 C 219.251 256.237, 212.111 263.679, 204.517 271.982 L 190.709 287.077 181.983 278.539 C 174.286 271.006, 172.832 270, 169.645 270 C 164.257 270, 159.955 274.224, 159.284 280.170 L 158.765 284.774 170.843 297.581 C 183.332 310.823, 185.896 312.904, 189.800 312.965 C 194.098 313.031, 197.548 310.191, 211.032 295.489 C 235.237 269.097, 235.004 269.397, 234.967 264.682 C 234.902 256.603, 226.410 251.223, 220.385 255.443 M 525.312 255.945 C 514.262 260.962, 509.805 278.284, 516.300 290.971 C 518.050 294.390, 519.840 296.095, 523.909 298.221 C 535.192 304.116, 547.821 299.911, 553.104 288.500 C 555.619 283.068, 555.617 271.924, 553.100 266.500 C 550.930 261.824, 545.688 256.571, 541.685 255.061 C 537.371 253.435, 529.960 253.835, 525.312 255.945 M 221.414 256.147 C 220.266 256.704, 212.865 264.320, 204.967 273.071 L 190.607 288.983 181.438 279.991 C 171.246 269.996, 169.234 269.249, 164.111 273.560 C 160.155 276.889, 159.097 281.972, 161.573 285.754 C 164.464 290.171, 183.238 309.067, 186.323 310.665 C 191.843 313.523, 193.822 312.103, 212.798 291.671 C 222.591 281.127, 231.368 271.387, 232.302 270.027 C 235.599 265.227, 234.123 259.149, 229.020 256.510 C 225.686 254.786, 224.351 254.723, 221.414 256.147" stroke="none" fill="#4aac88" fill-rule="evenodd"/></svg>